<svg aria-roledescription="er" viewBox="0 0 945.6121826171875 1096" style="max-width: 945.612px; background-color: white;" xmlns:xlink="http://www.w3.org/1999/xlink" xmlns="http://www.w3.org/2000/svg" width="100%" id="mermaid-0"><style>#mermaid-0{font-family:"trebuchet ms",verdana,arial,sans-serif;font-size:16px;fill:#000000;}#mermaid-0 .error-icon{fill:#552222;}#mermaid-0 .error-text{fill:#552222;stroke:#552222;}#mermaid-0 .edge-thickness-normal{stroke-width:2px;}#mermaid-0 .edge-thickness-thick{stroke-width:3.5px;}#mermaid-0 .edge-pattern-solid{stroke-dasharray:0;}#mermaid-0 .edge-pattern-dashed{stroke-dasharray:3;}#mermaid-0 .edge-pattern-dotted{stroke-dasharray:2;}#mermaid-0 .marker{fill:#000000;stroke:#000000;}#mermaid-0 .marker.cross{stroke:#000000;}#mermaid-0 svg{font-family:"trebuchet ms",verdana,arial,sans-serif;font-size:16px;}#mermaid-0 .entityBox{fill:#cde498;stroke:#13540c;}#mermaid-0 .attributeBoxOdd{fill:#ffffff;stroke:#13540c;}#mermaid-0 .attributeBoxEven{fill:#f2f2f2;stroke:#13540c;}#mermaid-0 .relationshipLabelBox{fill:hsl(78.1578947368, 58.4615384615%, 84.5098039216%);opacity:0.7;background-color:hsl(78.1578947368, 58.4615384615%, 84.5098039216%);}#mermaid-0 .relationshipLabelBox rect{opacity:0.5;}#mermaid-0 .relationshipLine{stroke:#000000;}#mermaid-0 .entityTitleText{text-anchor:middle;font-size:18px;fill:#000000;}#mermaid-0 :root{--mermaid-font-family:"trebuchet ms",verdana,arial,sans-serif;}</style><g/><defs><marker orient="auto" markerHeight="18" markerWidth="18" refY="9" refX="0" id="ONLY_ONE_START"><path d="M9,0 L9,18 M15,0 L15,18" fill="none" stroke="gray"/></marker></defs><defs><marker orient="auto" markerHeight="18" markerWidth="18" refY="9" refX="18" id="ONLY_ONE_END"><path d="M3,0 L3,18 M9,0 L9,18" fill="none" stroke="gray"/></marker></defs><defs><marker orient="auto" markerHeight="18" markerWidth="30" refY="9" refX="0" id="ZERO_OR_ONE_START"><circle r="6" cy="9" cx="21" fill="white" stroke="gray"/><path d="M9,0 L9,18" fill="none" stroke="gray"/></marker></defs><defs><marker orient="auto" markerHeight="18" markerWidth="30" refY="9" refX="30" id="ZERO_OR_ONE_END"><circle r="6" cy="9" cx="9" fill="white" stroke="gray"/><path d="M21,0 L21,18" fill="none" stroke="gray"/></marker></defs><defs><marker orient="auto" markerHeight="36" markerWidth="45" refY="18" refX="18" id="ONE_OR_MORE_START"><path d="M0,18 Q 18,0 36,18 Q 18,36 0,18 M42,9 L42,27" fill="none" stroke="gray"/></marker></defs><defs><marker orient="auto" markerHeight="36" markerWidth="45" refY="18" refX="27" id="ONE_OR_MORE_END"><path d="M3,9 L3,27 M9,18 Q27,0 45,18 Q27,36 9,18" fill="none" stroke="gray"/></marker></defs><defs><marker orient="auto" markerHeight="36" markerWidth="57" refY="18" refX="18" id="ZERO_OR_MORE_START"><circle r="6" cy="18" cx="48" fill="white" stroke="gray"/><path d="M0,18 Q18,0 36,18 Q18,36 0,18" fill="none" stroke="gray"/></marker></defs><defs><marker orient="auto" markerHeight="36" markerWidth="57" refY="18" refX="39" id="ZERO_OR_MORE_END"><circle r="6" cy="18" cx="9" fill="white" stroke="gray"/><path d="M21,18 Q39,0 57,18 Q39,36 21,18" fill="none" stroke="gray"/></marker></defs><path style="stroke: gray; fill: none;" marker-start="url(#ZERO_OR_ONE_START)" marker-end="url(#ONLY_ONE_END)" d="M817.2323150634766,908L817.2323150634766,916.3333333333334C817.2323150634766,924.6666666666666,817.2323150634766,941.3333333333334,817.2323150634766,958C817.2323150634766,974.6666666666666,817.2323150634766,991.3333333333334,817.2323150634766,999.6666666666666L817.2323150634766,1008" class="er relationshipLine"/><path style="stroke: gray; fill: none;" marker-start="url(#ZERO_OR_ONE_START)" marker-end="url(#ONLY_ONE_END)" d="M731.0745849609375,520L731.0745849609375,528.3333333333334C731.0745849609375,536.6666666666666,731.0745849609375,553.3333333333334,734.7755183845861,570C738.4764518082347,586.6666666666666,745.8783186555319,603.3333333333334,749.5792520791805,611.6666666666666L753.280185502829,620" class="er relationshipLine"/><path style="stroke: gray; fill: none;" marker-start="url(#ZERO_OR_ONE_START)" marker-end="url(#ONLY_ONE_END)" d="M494.94147169589996,176L485.38916128873825,184.33333333333334C475.83685088157654,192.66666666666666,456.7322300672531,209.33333333333334,447.1799196600914,238.83333333333334C437.6276092529297,268.3333333333333,437.6276092529297,310.6666666666667,437.6276092529297,331.8333333333333L437.6276092529297,353" class="er relationshipLine"/><path style="stroke: gray; fill: none;" marker-start="url(#ZERO_OR_ONE_START)" marker-end="url(#ONLY_ONE_END)" d="M430.96976470947266,140.121180149123L378.84947840372723,154.43431679093584C326.72919209798175,168.74745343274867,222.48861948649088,197.37372671637434,170.36833318074545,232.85353002485385C118.248046875,268.3333333333333,118.248046875,310.6666666666667,118.248046875,331.8333333333333L118.248046875,353" class="er relationshipLine"/><path style="stroke: gray; fill: none;" marker-start="url(#ZERO_OR_ONE_START)" marker-end="url(#ONLY_ONE_END)" d="M737.7324295043945,159.5373472935325L765.3420321146647,170.61445607794374C792.9516347249349,181.691564862355,848.1708399454752,203.84578243117753,875.7804425557455,243.58955788225543C903.3900451660156,283.3333333333333,903.3900451660156,340.6666666666667,903.3900451660156,398C903.3900451660156,455.3333333333333,903.3900451660156,512.6666666666666,899.689111742367,549.6666666666666C895.9881783187184,586.6666666666666,888.5863114714213,603.3333333333334,884.8853780477726,611.6666666666666L881.1844446241241,620" class="er relationshipLine"/><path style="stroke: gray; fill: none;" marker-start="url(#ZERO_OR_ONE_START)" marker-end="url(#ONLY_ONE_END)" d="M673.7607225179672,176L683.3130329251289,184.33333333333334C692.8653433322906,192.66666666666666,711.9699641466141,209.33333333333334,721.5222745537758,226C731.0745849609375,242.66666666666666,731.0745849609375,259.3333333333333,731.0745849609375,267.6666666666667L731.0745849609375,276" class="er relationshipLine"/><g transform="translate(739.2316131591797,1008 )" id="entity-AccountRole-037258d5-6364-4183-b163-fbd5f81d7686"><rect height="68" width="156.00140380859375" y="0" x="0" class="er entityBox"/><text style="dominant-baseline: middle; text-anchor: middle; font-size: 12px;" transform="translate(78.00070190429688,12)" y="0" x="0" id="text-entity-AccountRole-037258d5-6364-4183-b163-fbd5f81d7686" class="er entityLabel">AccountRole</text><rect height="22" width="78.00070190429688" y="24" x="0" class="er attributeBoxOdd"/><text style="dominant-baseline: middle; font-size: 10.2px;" transform="translate(5,35)" y="0" x="0" id="text-entity-AccountRole-037258d5-6364-4183-b163-fbd5f81d7686-attr-1-type" class="er entityLabel">ADMIN</text><rect height="22" width="78.00070190429688" y="24" x="78.00070190429688" class="er attributeBoxOdd"/><text style="dominant-baseline: middle; font-size: 10.2px;" transform="translate(83.00070190429688,35)" y="0" x="0" id="text-entity-AccountRole-037258d5-6364-4183-b163-fbd5f81d7686-attr-1-name" class="er entityLabel">ADMIN</text><rect height="22" width="78.00070190429688" y="46" x="0" class="er attributeBoxEven"/><text style="dominant-baseline: middle; font-size: 10.2px;" transform="translate(5,57)" y="0" x="0" id="text-entity-AccountRole-037258d5-6364-4183-b163-fbd5f81d7686-attr-2-type" class="er entityLabel">DEFAULT_USER</text><rect height="22" width="78.00070190429688" y="46" x="78.00070190429688" class="er attributeBoxEven"/><text style="dominant-baseline: middle; font-size: 10.2px;" transform="translate(83.00070190429688,57)" y="0" x="0" id="text-entity-AccountRole-037258d5-6364-4183-b163-fbd5f81d7686-attr-2-name" class="er entityLabel">DEFAULT_USER</text></g><g transform="translate(20,353 )" id="entity-AccountEcommerceExperience-772ec31e-cbea-4afc-ad52-f771bb989cc5"><rect height="90" width="196.49609375" y="0" x="0" class="er entityBox"/><text style="dominant-baseline: middle; text-anchor: middle; font-size: 12px;" transform="translate(98.248046875,12)" y="0" x="0" id="text-entity-AccountEcommerceExperience-772ec31e-cbea-4afc-ad52-f771bb989cc5" class="er entityLabel">AccountEcommerceExperience</text><rect height="22" width="98.248046875" y="24" x="0" class="er attributeBoxOdd"/><text style="dominant-baseline: middle; font-size: 10.2px;" transform="translate(5,35)" y="0" x="0" id="text-entity-AccountEcommerceExperience-772ec31e-cbea-4afc-ad52-f771bb989cc5-attr-1-type" class="er entityLabel">BEGINNER</text><rect height="22" width="98.248046875" y="24" x="98.248046875" class="er attributeBoxOdd"/><text style="dominant-baseline: middle; font-size: 10.2px;" transform="translate(103.248046875,35)" y="0" x="0" id="text-entity-AccountEcommerceExperience-772ec31e-cbea-4afc-ad52-f771bb989cc5-attr-1-name" class="er entityLabel">BEGINNER</text><rect height="22" width="98.248046875" y="46" x="0" class="er attributeBoxEven"/><text style="dominant-baseline: middle; font-size: 10.2px;" transform="translate(5,57)" y="0" x="0" id="text-entity-AccountEcommerceExperience-772ec31e-cbea-4afc-ad52-f771bb989cc5-attr-2-type" class="er entityLabel">SOME_KNOWLEDGE</text><rect height="22" width="98.248046875" y="46" x="98.248046875" class="er attributeBoxEven"/><text style="dominant-baseline: middle; font-size: 10.2px;" transform="translate(103.248046875,57)" y="0" x="0" id="text-entity-AccountEcommerceExperience-772ec31e-cbea-4afc-ad52-f771bb989cc5-attr-2-name" class="er entityLabel">SOME_KNOWLEDGE</text><rect height="22" width="98.248046875" y="68" x="0" class="er attributeBoxOdd"/><text style="dominant-baseline: middle; font-size: 10.2px;" transform="translate(5,79)" y="0" x="0" id="text-entity-AccountEcommerceExperience-772ec31e-cbea-4afc-ad52-f771bb989cc5-attr-3-type" class="er entityLabel">EXPERT</text><rect height="22" width="98.248046875" y="68" x="98.248046875" class="er attributeBoxOdd"/><text style="dominant-baseline: middle; font-size: 10.2px;" transform="translate(103.248046875,79)" y="0" x="0" id="text-entity-AccountEcommerceExperience-772ec31e-cbea-4afc-ad52-f771bb989cc5-attr-3-name" class="er entityLabel">EXPERT</text></g><g transform="translate(316.49609375,353 )" id="entity-AccountType-7e1b5941-6c99-4282-9ebd-5d3004d7f7f8"><rect height="90" width="242.26303100585938" y="0" x="0" class="er entityBox"/><text style="dominant-baseline: middle; text-anchor: middle; font-size: 12px;" transform="translate(121.13151550292969,12)" y="0" x="0" id="text-entity-AccountType-7e1b5941-6c99-4282-9ebd-5d3004d7f7f8" class="er entityLabel">AccountType</text><rect height="22" width="121.13151550292969" y="24" x="0" class="er attributeBoxOdd"/><text style="dominant-baseline: middle; font-size: 10.2px;" transform="translate(5,35)" y="0" x="0" id="text-entity-AccountType-7e1b5941-6c99-4282-9ebd-5d3004d7f7f8-attr-1-type" class="er entityLabel">CUSTOMER_AND_SELLER</text><rect height="22" width="121.13151550292969" y="24" x="121.13151550292969" class="er attributeBoxOdd"/><text style="dominant-baseline: middle; font-size: 10.2px;" transform="translate(126.13151550292969,35)" y="0" x="0" id="text-entity-AccountType-7e1b5941-6c99-4282-9ebd-5d3004d7f7f8-attr-1-name" class="er entityLabel">CUSTOMER_AND_SELLER</text><rect height="22" width="121.13151550292969" y="46" x="0" class="er attributeBoxEven"/><text style="dominant-baseline: middle; font-size: 10.2px;" transform="translate(5,57)" y="0" x="0" id="text-entity-AccountType-7e1b5941-6c99-4282-9ebd-5d3004d7f7f8-attr-2-type" class="er entityLabel">ONLY_CUSTOMER</text><rect height="22" width="121.13151550292969" y="46" x="121.13151550292969" class="er attributeBoxEven"/><text style="dominant-baseline: middle; font-size: 10.2px;" transform="translate(126.13151550292969,57)" y="0" x="0" id="text-entity-AccountType-7e1b5941-6c99-4282-9ebd-5d3004d7f7f8-attr-2-name" class="er entityLabel">ONLY_CUSTOMER</text><rect height="22" width="121.13151550292969" y="68" x="0" class="er attributeBoxOdd"/><text style="dominant-baseline: middle; font-size: 10.2px;" transform="translate(5,79)" y="0" x="0" id="text-entity-AccountType-7e1b5941-6c99-4282-9ebd-5d3004d7f7f8-attr-3-type" class="er entityLabel">ONLY_SELLER</text><rect height="22" width="121.13151550292969" y="68" x="121.13151550292969" class="er attributeBoxOdd"/><text style="dominant-baseline: middle; font-size: 10.2px;" transform="translate(126.13151550292969,79)" y="0" x="0" id="text-entity-AccountType-7e1b5941-6c99-4282-9ebd-5d3004d7f7f8-attr-3-name" class="er entityLabel">ONLY_SELLER</text></g><g transform="translate(708.8525085449219,620 )" id="entity-accounts-396d03a5-71a0-4d3e-8802-14d5b25a03e9"><rect height="288" width="216.75961303710938" y="0" x="0" class="er entityBox"/><text style="dominant-baseline: middle; text-anchor: middle; font-size: 12px;" transform="translate(108.37980651855469,12)" y="0" x="0" id="text-entity-accounts-396d03a5-71a0-4d3e-8802-14d5b25a03e9" class="er entityLabel">accounts</text><rect height="22" width="67.78575134277344" y="24" x="0" class="er attributeBoxOdd"/><text style="dominant-baseline: middle; font-size: 10.2px;" transform="translate(5,35)" y="0" x="0" id="text-entity-accounts-396d03a5-71a0-4d3e-8802-14d5b25a03e9-attr-1-type" class="er entityLabel">String</text><rect height="22" width="79.07363891601562" y="24" x="67.78575134277344" class="er attributeBoxOdd"/><text style="dominant-baseline: middle; font-size: 10.2px;" transform="translate(72.78575134277344,35)" y="0" x="0" id="text-entity-accounts-396d03a5-71a0-4d3e-8802-14d5b25a03e9-attr-1-name" class="er entityLabel">id</text><rect height="22" width="22.68768310546875" y="24" x="146.85939025878906" class="er attributeBoxOdd"/><text style="dominant-baseline: middle; font-size: 10.2px;" transform="translate(151.85939025878906,35)" y="0" x="0" id="text-entity-accounts-396d03a5-71a0-4d3e-8802-14d5b25a03e9-attr-1-key" class="er entityLabel">PK</text><rect height="22" width="47.21253967285156" y="24" x="169.5470733642578" class="er attributeBoxOdd"/><text style="dominant-baseline: middle; font-size: 10.2px;" transform="translate(174.5470733642578,35)" y="0" x="0" id="text-entity-accounts-396d03a5-71a0-4d3e-8802-14d5b25a03e9-attr-1-comment" class="er entityLabel"/><rect height="22" width="67.78575134277344" y="46" x="0" class="er attributeBoxEven"/><text style="dominant-baseline: middle; font-size: 10.2px;" transform="translate(5,57)" y="0" x="0" id="text-entity-accounts-396d03a5-71a0-4d3e-8802-14d5b25a03e9-attr-2-type" class="er entityLabel">String</text><rect height="22" width="79.07363891601562" y="46" x="67.78575134277344" class="er attributeBoxEven"/><text style="dominant-baseline: middle; font-size: 10.2px;" transform="translate(72.78575134277344,57)" y="0" x="0" id="text-entity-accounts-396d03a5-71a0-4d3e-8802-14d5b25a03e9-attr-2-name" class="er entityLabel">alias_id</text><rect height="22" width="22.68768310546875" y="46" x="146.85939025878906" class="er attributeBoxEven"/><text style="dominant-baseline: middle; font-size: 10.2px;" transform="translate(151.85939025878906,57)" y="0" x="0" id="text-entity-accounts-396d03a5-71a0-4d3e-8802-14d5b25a03e9-attr-2-key" class="er entityLabel"/><rect height="22" width="47.21253967285156" y="46" x="169.5470733642578" class="er attributeBoxEven"/><text style="dominant-baseline: middle; font-size: 10.2px;" transform="translate(174.5470733642578,57)" y="0" x="0" id="text-entity-accounts-396d03a5-71a0-4d3e-8802-14d5b25a03e9-attr-2-comment" class="er entityLabel"/><rect height="22" width="67.78575134277344" y="68" x="0" class="er attributeBoxOdd"/><text style="dominant-baseline: middle; font-size: 10.2px;" transform="translate(5,79)" y="0" x="0" id="text-entity-accounts-396d03a5-71a0-4d3e-8802-14d5b25a03e9-attr-3-type" class="er entityLabel">String</text><rect height="22" width="79.07363891601562" y="68" x="67.78575134277344" class="er attributeBoxOdd"/><text style="dominant-baseline: middle; font-size: 10.2px;" transform="translate(72.78575134277344,79)" y="0" x="0" id="text-entity-accounts-396d03a5-71a0-4d3e-8802-14d5b25a03e9-attr-3-name" class="er entityLabel">name</text><rect height="22" width="22.68768310546875" y="68" x="146.85939025878906" class="er attributeBoxOdd"/><text style="dominant-baseline: middle; font-size: 10.2px;" transform="translate(151.85939025878906,79)" y="0" x="0" id="text-entity-accounts-396d03a5-71a0-4d3e-8802-14d5b25a03e9-attr-3-key" class="er entityLabel"/><rect height="22" width="47.21253967285156" y="68" x="169.5470733642578" class="er attributeBoxOdd"/><text style="dominant-baseline: middle; font-size: 10.2px;" transform="translate(174.5470733642578,79)" y="0" x="0" id="text-entity-accounts-396d03a5-71a0-4d3e-8802-14d5b25a03e9-attr-3-comment" class="er entityLabel"/><rect height="22" width="67.78575134277344" y="90" x="0" class="er attributeBoxEven"/><text style="dominant-baseline: middle; font-size: 10.2px;" transform="translate(5,101)" y="0" x="0" id="text-entity-accounts-396d03a5-71a0-4d3e-8802-14d5b25a03e9-attr-4-type" class="er entityLabel">String</text><rect height="22" width="79.07363891601562" y="90" x="67.78575134277344" class="er attributeBoxEven"/><text style="dominant-baseline: middle; font-size: 10.2px;" transform="translate(72.78575134277344,101)" y="0" x="0" id="text-entity-accounts-396d03a5-71a0-4d3e-8802-14d5b25a03e9-attr-4-name" class="er entityLabel">avatar_url</text><rect height="22" width="22.68768310546875" y="90" x="146.85939025878906" class="er attributeBoxEven"/><text style="dominant-baseline: middle; font-size: 10.2px;" transform="translate(151.85939025878906,101)" y="0" x="0" id="text-entity-accounts-396d03a5-71a0-4d3e-8802-14d5b25a03e9-attr-4-key" class="er entityLabel"/><rect height="22" width="47.21253967285156" y="90" x="169.5470733642578" class="er attributeBoxEven"/><text style="dominant-baseline: middle; font-size: 10.2px;" transform="translate(174.5470733642578,101)" y="0" x="0" id="text-entity-accounts-396d03a5-71a0-4d3e-8802-14d5b25a03e9-attr-4-comment" class="er entityLabel">nullable</text><rect height="22" width="67.78575134277344" y="112" x="0" class="er attributeBoxOdd"/><text style="dominant-baseline: middle; font-size: 10.2px;" transform="translate(5,123)" y="0" x="0" id="text-entity-accounts-396d03a5-71a0-4d3e-8802-14d5b25a03e9-attr-5-type" class="er entityLabel">String</text><rect height="22" width="79.07363891601562" y="112" x="67.78575134277344" class="er attributeBoxOdd"/><text style="dominant-baseline: middle; font-size: 10.2px;" transform="translate(72.78575134277344,123)" y="0" x="0" id="text-entity-accounts-396d03a5-71a0-4d3e-8802-14d5b25a03e9-attr-5-name" class="er entityLabel">email</text><rect height="22" width="22.68768310546875" y="112" x="146.85939025878906" class="er attributeBoxOdd"/><text style="dominant-baseline: middle; font-size: 10.2px;" transform="translate(151.85939025878906,123)" y="0" x="0" id="text-entity-accounts-396d03a5-71a0-4d3e-8802-14d5b25a03e9-attr-5-key" class="er entityLabel"/><rect height="22" width="47.21253967285156" y="112" x="169.5470733642578" class="er attributeBoxOdd"/><text style="dominant-baseline: middle; font-size: 10.2px;" transform="translate(174.5470733642578,123)" y="0" x="0" id="text-entity-accounts-396d03a5-71a0-4d3e-8802-14d5b25a03e9-attr-5-comment" class="er entityLabel"/><rect height="22" width="67.78575134277344" y="134" x="0" class="er attributeBoxEven"/><text style="dominant-baseline: middle; font-size: 10.2px;" transform="translate(5,145)" y="0" x="0" id="text-entity-accounts-396d03a5-71a0-4d3e-8802-14d5b25a03e9-attr-6-type" class="er entityLabel">String</text><rect height="22" width="79.07363891601562" y="134" x="67.78575134277344" class="er attributeBoxEven"/><text style="dominant-baseline: middle; font-size: 10.2px;" transform="translate(72.78575134277344,145)" y="0" x="0" id="text-entity-accounts-396d03a5-71a0-4d3e-8802-14d5b25a03e9-attr-6-name" class="er entityLabel">cpf</text><rect height="22" width="22.68768310546875" y="134" x="146.85939025878906" class="er attributeBoxEven"/><text style="dominant-baseline: middle; font-size: 10.2px;" transform="translate(151.85939025878906,145)" y="0" x="0" id="text-entity-accounts-396d03a5-71a0-4d3e-8802-14d5b25a03e9-attr-6-key" class="er entityLabel"/><rect height="22" width="47.21253967285156" y="134" x="169.5470733642578" class="er attributeBoxEven"/><text style="dominant-baseline: middle; font-size: 10.2px;" transform="translate(174.5470733642578,145)" y="0" x="0" id="text-entity-accounts-396d03a5-71a0-4d3e-8802-14d5b25a03e9-attr-6-comment" class="er entityLabel"/><rect height="22" width="67.78575134277344" y="156" x="0" class="er attributeBoxOdd"/><text style="dominant-baseline: middle; font-size: 10.2px;" transform="translate(5,167)" y="0" x="0" id="text-entity-accounts-396d03a5-71a0-4d3e-8802-14d5b25a03e9-attr-7-type" class="er entityLabel">String</text><rect height="22" width="79.07363891601562" y="156" x="67.78575134277344" class="er attributeBoxOdd"/><text style="dominant-baseline: middle; font-size: 10.2px;" transform="translate(72.78575134277344,167)" y="0" x="0" id="text-entity-accounts-396d03a5-71a0-4d3e-8802-14d5b25a03e9-attr-7-name" class="er entityLabel">phone_number</text><rect height="22" width="22.68768310546875" y="156" x="146.85939025878906" class="er attributeBoxOdd"/><text style="dominant-baseline: middle; font-size: 10.2px;" transform="translate(151.85939025878906,167)" y="0" x="0" id="text-entity-accounts-396d03a5-71a0-4d3e-8802-14d5b25a03e9-attr-7-key" class="er entityLabel"/><rect height="22" width="47.21253967285156" y="156" x="169.5470733642578" class="er attributeBoxOdd"/><text style="dominant-baseline: middle; font-size: 10.2px;" transform="translate(174.5470733642578,167)" y="0" x="0" id="text-entity-accounts-396d03a5-71a0-4d3e-8802-14d5b25a03e9-attr-7-comment" class="er entityLabel"/><rect height="22" width="67.78575134277344" y="178" x="0" class="er attributeBoxEven"/><text style="dominant-baseline: middle; font-size: 10.2px;" transform="translate(5,189)" y="0" x="0" id="text-entity-accounts-396d03a5-71a0-4d3e-8802-14d5b25a03e9-attr-8-type" class="er entityLabel">String</text><rect height="22" width="79.07363891601562" y="178" x="67.78575134277344" class="er attributeBoxEven"/><text style="dominant-baseline: middle; font-size: 10.2px;" transform="translate(72.78575134277344,189)" y="0" x="0" id="text-entity-accounts-396d03a5-71a0-4d3e-8802-14d5b25a03e9-attr-8-name" class="er entityLabel">password</text><rect height="22" width="22.68768310546875" y="178" x="146.85939025878906" class="er attributeBoxEven"/><text style="dominant-baseline: middle; font-size: 10.2px;" transform="translate(151.85939025878906,189)" y="0" x="0" id="text-entity-accounts-396d03a5-71a0-4d3e-8802-14d5b25a03e9-attr-8-key" class="er entityLabel"/><rect height="22" width="47.21253967285156" y="178" x="169.5470733642578" class="er attributeBoxEven"/><text style="dominant-baseline: middle; font-size: 10.2px;" transform="translate(174.5470733642578,189)" y="0" x="0" id="text-entity-accounts-396d03a5-71a0-4d3e-8802-14d5b25a03e9-attr-8-comment" class="er entityLabel"/><rect height="22" width="67.78575134277344" y="200" x="0" class="er attributeBoxOdd"/><text style="dominant-baseline: middle; font-size: 10.2px;" transform="translate(5,211)" y="0" x="0" id="text-entity-accounts-396d03a5-71a0-4d3e-8802-14d5b25a03e9-attr-9-type" class="er entityLabel">AccountRole</text><rect height="22" width="79.07363891601562" y="200" x="67.78575134277344" class="er attributeBoxOdd"/><text style="dominant-baseline: middle; font-size: 10.2px;" transform="translate(72.78575134277344,211)" y="0" x="0" id="text-entity-accounts-396d03a5-71a0-4d3e-8802-14d5b25a03e9-attr-9-name" class="er entityLabel">role</text><rect height="22" width="22.68768310546875" y="200" x="146.85939025878906" class="er attributeBoxOdd"/><text style="dominant-baseline: middle; font-size: 10.2px;" transform="translate(151.85939025878906,211)" y="0" x="0" id="text-entity-accounts-396d03a5-71a0-4d3e-8802-14d5b25a03e9-attr-9-key" class="er entityLabel"/><rect height="22" width="47.21253967285156" y="200" x="169.5470733642578" class="er attributeBoxOdd"/><text style="dominant-baseline: middle; font-size: 10.2px;" transform="translate(174.5470733642578,211)" y="0" x="0" id="text-entity-accounts-396d03a5-71a0-4d3e-8802-14d5b25a03e9-attr-9-comment" class="er entityLabel"/><rect height="22" width="67.78575134277344" y="222" x="0" class="er attributeBoxEven"/><text style="dominant-baseline: middle; font-size: 10.2px;" transform="translate(5,233)" y="0" x="0" id="text-entity-accounts-396d03a5-71a0-4d3e-8802-14d5b25a03e9-attr-10-type" class="er entityLabel">Boolean</text><rect height="22" width="79.07363891601562" y="222" x="67.78575134277344" class="er attributeBoxEven"/><text style="dominant-baseline: middle; font-size: 10.2px;" transform="translate(72.78575134277344,233)" y="0" x="0" id="text-entity-accounts-396d03a5-71a0-4d3e-8802-14d5b25a03e9-attr-10-name" class="er entityLabel">is_active</text><rect height="22" width="22.68768310546875" y="222" x="146.85939025878906" class="er attributeBoxEven"/><text style="dominant-baseline: middle; font-size: 10.2px;" transform="translate(151.85939025878906,233)" y="0" x="0" id="text-entity-accounts-396d03a5-71a0-4d3e-8802-14d5b25a03e9-attr-10-key" class="er entityLabel"/><rect height="22" width="47.21253967285156" y="222" x="169.5470733642578" class="er attributeBoxEven"/><text style="dominant-baseline: middle; font-size: 10.2px;" transform="translate(174.5470733642578,233)" y="0" x="0" id="text-entity-accounts-396d03a5-71a0-4d3e-8802-14d5b25a03e9-attr-10-comment" class="er entityLabel"/><rect height="22" width="67.78575134277344" y="244" x="0" class="er attributeBoxOdd"/><text style="dominant-baseline: middle; font-size: 10.2px;" transform="translate(5,255)" y="0" x="0" id="text-entity-accounts-396d03a5-71a0-4d3e-8802-14d5b25a03e9-attr-11-type" class="er entityLabel">DateTime</text><rect height="22" width="79.07363891601562" y="244" x="67.78575134277344" class="er attributeBoxOdd"/><text style="dominant-baseline: middle; font-size: 10.2px;" transform="translate(72.78575134277344,255)" y="0" x="0" id="text-entity-accounts-396d03a5-71a0-4d3e-8802-14d5b25a03e9-attr-11-name" class="er entityLabel">created_at</text><rect height="22" width="22.68768310546875" y="244" x="146.85939025878906" class="er attributeBoxOdd"/><text style="dominant-baseline: middle; font-size: 10.2px;" transform="translate(151.85939025878906,255)" y="0" x="0" id="text-entity-accounts-396d03a5-71a0-4d3e-8802-14d5b25a03e9-attr-11-key" class="er entityLabel"/><rect height="22" width="47.21253967285156" y="244" x="169.5470733642578" class="er attributeBoxOdd"/><text style="dominant-baseline: middle; font-size: 10.2px;" transform="translate(174.5470733642578,255)" y="0" x="0" id="text-entity-accounts-396d03a5-71a0-4d3e-8802-14d5b25a03e9-attr-11-comment" class="er entityLabel"/><rect height="22" width="67.78575134277344" y="266" x="0" class="er attributeBoxEven"/><text style="dominant-baseline: middle; font-size: 10.2px;" transform="translate(5,277)" y="0" x="0" id="text-entity-accounts-396d03a5-71a0-4d3e-8802-14d5b25a03e9-attr-12-type" class="er entityLabel">DateTime</text><rect height="22" width="79.07363891601562" y="266" x="67.78575134277344" class="er attributeBoxEven"/><text style="dominant-baseline: middle; font-size: 10.2px;" transform="translate(72.78575134277344,277)" y="0" x="0" id="text-entity-accounts-396d03a5-71a0-4d3e-8802-14d5b25a03e9-attr-12-name" class="er entityLabel">updated_at</text><rect height="22" width="22.68768310546875" y="266" x="146.85939025878906" class="er attributeBoxEven"/><text style="dominant-baseline: middle; font-size: 10.2px;" transform="translate(151.85939025878906,277)" y="0" x="0" id="text-entity-accounts-396d03a5-71a0-4d3e-8802-14d5b25a03e9-attr-12-key" class="er entityLabel"/><rect height="22" width="47.21253967285156" y="266" x="169.5470733642578" class="er attributeBoxEven"/><text style="dominant-baseline: middle; font-size: 10.2px;" transform="translate(174.5470733642578,277)" y="0" x="0" id="text-entity-accounts-396d03a5-71a0-4d3e-8802-14d5b25a03e9-attr-12-comment" class="er entityLabel"/></g><g transform="translate(658.7591247558594,276 )" id="entity-accountaddresses-ab806cb4-81cf-492a-950e-19a8e2931a58"><rect height="244" width="144.63092041015625" y="0" x="0" class="er entityBox"/><text style="dominant-baseline: middle; text-anchor: middle; font-size: 12px;" transform="translate(72.31546020507812,12)" y="0" x="0" id="text-entity-accountaddresses-ab806cb4-81cf-492a-950e-19a8e2931a58" class="er entityLabel">account_addresses</text><rect height="22" width="54.095550537109375" y="24" x="0" class="er attributeBoxOdd"/><text style="dominant-baseline: middle; font-size: 10.2px;" transform="translate(5,35)" y="0" x="0" id="text-entity-accountaddresses-ab806cb4-81cf-492a-950e-19a8e2931a58-attr-1-type" class="er entityLabel">String</text><rect height="22" width="67.84768676757812" y="24" x="54.095550537109375" class="er attributeBoxOdd"/><text style="dominant-baseline: middle; font-size: 10.2px;" transform="translate(59.095550537109375,35)" y="0" x="0" id="text-entity-accountaddresses-ab806cb4-81cf-492a-950e-19a8e2931a58-attr-1-name" class="er entityLabel">id</text><rect height="22" width="22.68768310546875" y="24" x="121.9432373046875" class="er attributeBoxOdd"/><text style="dominant-baseline: middle; font-size: 10.2px;" transform="translate(126.9432373046875,35)" y="0" x="0" id="text-entity-accountaddresses-ab806cb4-81cf-492a-950e-19a8e2931a58-attr-1-key" class="er entityLabel">PK</text><rect height="22" width="54.095550537109375" y="46" x="0" class="er attributeBoxEven"/><text style="dominant-baseline: middle; font-size: 10.2px;" transform="translate(5,57)" y="0" x="0" id="text-entity-accountaddresses-ab806cb4-81cf-492a-950e-19a8e2931a58-attr-2-type" class="er entityLabel">String</text><rect height="22" width="67.84768676757812" y="46" x="54.095550537109375" class="er attributeBoxEven"/><text style="dominant-baseline: middle; font-size: 10.2px;" transform="translate(59.095550537109375,57)" y="0" x="0" id="text-entity-accountaddresses-ab806cb4-81cf-492a-950e-19a8e2931a58-attr-2-name" class="er entityLabel">alias_id</text><rect height="22" width="22.68768310546875" y="46" x="121.9432373046875" class="er attributeBoxEven"/><text style="dominant-baseline: middle; font-size: 10.2px;" transform="translate(126.9432373046875,57)" y="0" x="0" id="text-entity-accountaddresses-ab806cb4-81cf-492a-950e-19a8e2931a58-attr-2-key" class="er entityLabel"/><rect height="22" width="54.095550537109375" y="68" x="0" class="er attributeBoxOdd"/><text style="dominant-baseline: middle; font-size: 10.2px;" transform="translate(5,79)" y="0" x="0" id="text-entity-accountaddresses-ab806cb4-81cf-492a-950e-19a8e2931a58-attr-3-type" class="er entityLabel">String</text><rect height="22" width="67.84768676757812" y="68" x="54.095550537109375" class="er attributeBoxOdd"/><text style="dominant-baseline: middle; font-size: 10.2px;" transform="translate(59.095550537109375,79)" y="0" x="0" id="text-entity-accountaddresses-ab806cb4-81cf-492a-950e-19a8e2931a58-attr-3-name" class="er entityLabel">zip_code</text><rect height="22" width="22.68768310546875" y="68" x="121.9432373046875" class="er attributeBoxOdd"/><text style="dominant-baseline: middle; font-size: 10.2px;" transform="translate(126.9432373046875,79)" y="0" x="0" id="text-entity-accountaddresses-ab806cb4-81cf-492a-950e-19a8e2931a58-attr-3-key" class="er entityLabel"/><rect height="22" width="54.095550537109375" y="90" x="0" class="er attributeBoxEven"/><text style="dominant-baseline: middle; font-size: 10.2px;" transform="translate(5,101)" y="0" x="0" id="text-entity-accountaddresses-ab806cb4-81cf-492a-950e-19a8e2931a58-attr-4-type" class="er entityLabel">String</text><rect height="22" width="67.84768676757812" y="90" x="54.095550537109375" class="er attributeBoxEven"/><text style="dominant-baseline: middle; font-size: 10.2px;" transform="translate(59.095550537109375,101)" y="0" x="0" id="text-entity-accountaddresses-ab806cb4-81cf-492a-950e-19a8e2931a58-attr-4-name" class="er entityLabel">country</text><rect height="22" width="22.68768310546875" y="90" x="121.9432373046875" class="er attributeBoxEven"/><text style="dominant-baseline: middle; font-size: 10.2px;" transform="translate(126.9432373046875,101)" y="0" x="0" id="text-entity-accountaddresses-ab806cb4-81cf-492a-950e-19a8e2931a58-attr-4-key" class="er entityLabel"/><rect height="22" width="54.095550537109375" y="112" x="0" class="er attributeBoxOdd"/><text style="dominant-baseline: middle; font-size: 10.2px;" transform="translate(5,123)" y="0" x="0" id="text-entity-accountaddresses-ab806cb4-81cf-492a-950e-19a8e2931a58-attr-5-type" class="er entityLabel">String</text><rect height="22" width="67.84768676757812" y="112" x="54.095550537109375" class="er attributeBoxOdd"/><text style="dominant-baseline: middle; font-size: 10.2px;" transform="translate(59.095550537109375,123)" y="0" x="0" id="text-entity-accountaddresses-ab806cb4-81cf-492a-950e-19a8e2931a58-attr-5-name" class="er entityLabel">state</text><rect height="22" width="22.68768310546875" y="112" x="121.9432373046875" class="er attributeBoxOdd"/><text style="dominant-baseline: middle; font-size: 10.2px;" transform="translate(126.9432373046875,123)" y="0" x="0" id="text-entity-accountaddresses-ab806cb4-81cf-492a-950e-19a8e2931a58-attr-5-key" class="er entityLabel"/><rect height="22" width="54.095550537109375" y="134" x="0" class="er attributeBoxEven"/><text style="dominant-baseline: middle; font-size: 10.2px;" transform="translate(5,145)" y="0" x="0" id="text-entity-accountaddresses-ab806cb4-81cf-492a-950e-19a8e2931a58-attr-6-type" class="er entityLabel">String</text><rect height="22" width="67.84768676757812" y="134" x="54.095550537109375" class="er attributeBoxEven"/><text style="dominant-baseline: middle; font-size: 10.2px;" transform="translate(59.095550537109375,145)" y="0" x="0" id="text-entity-accountaddresses-ab806cb4-81cf-492a-950e-19a8e2931a58-attr-6-name" class="er entityLabel">city</text><rect height="22" width="22.68768310546875" y="134" x="121.9432373046875" class="er attributeBoxEven"/><text style="dominant-baseline: middle; font-size: 10.2px;" transform="translate(126.9432373046875,145)" y="0" x="0" id="text-entity-accountaddresses-ab806cb4-81cf-492a-950e-19a8e2931a58-attr-6-key" class="er entityLabel"/><rect height="22" width="54.095550537109375" y="156" x="0" class="er attributeBoxOdd"/><text style="dominant-baseline: middle; font-size: 10.2px;" transform="translate(5,167)" y="0" x="0" id="text-entity-accountaddresses-ab806cb4-81cf-492a-950e-19a8e2931a58-attr-7-type" class="er entityLabel">String</text><rect height="22" width="67.84768676757812" y="156" x="54.095550537109375" class="er attributeBoxOdd"/><text style="dominant-baseline: middle; font-size: 10.2px;" transform="translate(59.095550537109375,167)" y="0" x="0" id="text-entity-accountaddresses-ab806cb4-81cf-492a-950e-19a8e2931a58-attr-7-name" class="er entityLabel">street</text><rect height="22" width="22.68768310546875" y="156" x="121.9432373046875" class="er attributeBoxOdd"/><text style="dominant-baseline: middle; font-size: 10.2px;" transform="translate(126.9432373046875,167)" y="0" x="0" id="text-entity-accountaddresses-ab806cb4-81cf-492a-950e-19a8e2931a58-attr-7-key" class="er entityLabel"/><rect height="22" width="54.095550537109375" y="178" x="0" class="er attributeBoxEven"/><text style="dominant-baseline: middle; font-size: 10.2px;" transform="translate(5,189)" y="0" x="0" id="text-entity-accountaddresses-ab806cb4-81cf-492a-950e-19a8e2931a58-attr-8-type" class="er entityLabel">String</text><rect height="22" width="67.84768676757812" y="178" x="54.095550537109375" class="er attributeBoxEven"/><text style="dominant-baseline: middle; font-size: 10.2px;" transform="translate(59.095550537109375,189)" y="0" x="0" id="text-entity-accountaddresses-ab806cb4-81cf-492a-950e-19a8e2931a58-attr-8-name" class="er entityLabel">complement</text><rect height="22" width="22.68768310546875" y="178" x="121.9432373046875" class="er attributeBoxEven"/><text style="dominant-baseline: middle; font-size: 10.2px;" transform="translate(126.9432373046875,189)" y="0" x="0" id="text-entity-accountaddresses-ab806cb4-81cf-492a-950e-19a8e2931a58-attr-8-key" class="er entityLabel"/><rect height="22" width="54.095550537109375" y="200" x="0" class="er attributeBoxOdd"/><text style="dominant-baseline: middle; font-size: 10.2px;" transform="translate(5,211)" y="0" x="0" id="text-entity-accountaddresses-ab806cb4-81cf-492a-950e-19a8e2931a58-attr-9-type" class="er entityLabel">DateTime</text><rect height="22" width="67.84768676757812" y="200" x="54.095550537109375" class="er attributeBoxOdd"/><text style="dominant-baseline: middle; font-size: 10.2px;" transform="translate(59.095550537109375,211)" y="0" x="0" id="text-entity-accountaddresses-ab806cb4-81cf-492a-950e-19a8e2931a58-attr-9-name" class="er entityLabel">created_at</text><rect height="22" width="22.68768310546875" y="200" x="121.9432373046875" class="er attributeBoxOdd"/><text style="dominant-baseline: middle; font-size: 10.2px;" transform="translate(126.9432373046875,211)" y="0" x="0" id="text-entity-accountaddresses-ab806cb4-81cf-492a-950e-19a8e2931a58-attr-9-key" class="er entityLabel"/><rect height="22" width="54.095550537109375" y="222" x="0" class="er attributeBoxEven"/><text style="dominant-baseline: middle; font-size: 10.2px;" transform="translate(5,233)" y="0" x="0" id="text-entity-accountaddresses-ab806cb4-81cf-492a-950e-19a8e2931a58-attr-10-type" class="er entityLabel">DateTime</text><rect height="22" width="67.84768676757812" y="222" x="54.095550537109375" class="er attributeBoxEven"/><text style="dominant-baseline: middle; font-size: 10.2px;" transform="translate(59.095550537109375,233)" y="0" x="0" id="text-entity-accountaddresses-ab806cb4-81cf-492a-950e-19a8e2931a58-attr-10-name" class="er entityLabel">updated_at</text><rect height="22" width="22.68768310546875" y="222" x="121.9432373046875" class="er attributeBoxEven"/><text style="dominant-baseline: middle; font-size: 10.2px;" transform="translate(126.9432373046875,233)" y="0" x="0" id="text-entity-accountaddresses-ab806cb4-81cf-492a-950e-19a8e2931a58-attr-10-key" class="er entityLabel"/></g><g transform="translate(430.96976470947266,20 )" id="entity-accountprofiles-89674638-70b0-4d1d-8edc-7772cacd420b"><rect height="156" width="306.7626647949219" y="0" x="0" class="er entityBox"/><text style="dominant-baseline: middle; text-anchor: middle; font-size: 12px;" transform="translate(153.38133239746094,12)" y="0" x="0" id="text-entity-accountprofiles-89674638-70b0-4d1d-8edc-7772cacd420b" class="er entityLabel">account_profiles</text><rect height="22" width="151.72146606445312" y="24" x="0" class="er attributeBoxOdd"/><text style="dominant-baseline: middle; font-size: 10.2px;" transform="translate(5,35)" y="0" x="0" id="text-entity-accountprofiles-89674638-70b0-4d1d-8edc-7772cacd420b-attr-1-type" class="er entityLabel">String</text><rect height="22" width="132.353515625" y="24" x="151.72146606445312" class="er attributeBoxOdd"/><text style="dominant-baseline: middle; font-size: 10.2px;" transform="translate(156.72146606445312,35)" y="0" x="0" id="text-entity-accountprofiles-89674638-70b0-4d1d-8edc-7772cacd420b-attr-1-name" class="er entityLabel">id</text><rect height="22" width="22.68768310546875" y="24" x="284.0749816894531" class="er attributeBoxOdd"/><text style="dominant-baseline: middle; font-size: 10.2px;" transform="translate(289.0749816894531,35)" y="0" x="0" id="text-entity-accountprofiles-89674638-70b0-4d1d-8edc-7772cacd420b-attr-1-key" class="er entityLabel">PK</text><rect height="22" width="151.72146606445312" y="46" x="0" class="er attributeBoxEven"/><text style="dominant-baseline: middle; font-size: 10.2px;" transform="translate(5,57)" y="0" x="0" id="text-entity-accountprofiles-89674638-70b0-4d1d-8edc-7772cacd420b-attr-2-type" class="er entityLabel">String</text><rect height="22" width="132.353515625" y="46" x="151.72146606445312" class="er attributeBoxEven"/><text style="dominant-baseline: middle; font-size: 10.2px;" transform="translate(156.72146606445312,57)" y="0" x="0" id="text-entity-accountprofiles-89674638-70b0-4d1d-8edc-7772cacd420b-attr-2-name" class="er entityLabel">alias_id</text><rect height="22" width="22.68768310546875" y="46" x="284.0749816894531" class="er attributeBoxEven"/><text style="dominant-baseline: middle; font-size: 10.2px;" transform="translate(289.0749816894531,57)" y="0" x="0" id="text-entity-accountprofiles-89674638-70b0-4d1d-8edc-7772cacd420b-attr-2-key" class="er entityLabel"/><rect height="22" width="151.72146606445312" y="68" x="0" class="er attributeBoxOdd"/><text style="dominant-baseline: middle; font-size: 10.2px;" transform="translate(5,79)" y="0" x="0" id="text-entity-accountprofiles-89674638-70b0-4d1d-8edc-7772cacd420b-attr-3-type" class="er entityLabel">AccountType</text><rect height="22" width="132.353515625" y="68" x="151.72146606445312" class="er attributeBoxOdd"/><text style="dominant-baseline: middle; font-size: 10.2px;" transform="translate(156.72146606445312,79)" y="0" x="0" id="text-entity-accountprofiles-89674638-70b0-4d1d-8edc-7772cacd420b-attr-3-name" class="er entityLabel">account_type</text><rect height="22" width="22.68768310546875" y="68" x="284.0749816894531" class="er attributeBoxOdd"/><text style="dominant-baseline: middle; font-size: 10.2px;" transform="translate(289.0749816894531,79)" y="0" x="0" id="text-entity-accountprofiles-89674638-70b0-4d1d-8edc-7772cacd420b-attr-3-key" class="er entityLabel"/><rect height="22" width="151.72146606445312" y="90" x="0" class="er attributeBoxEven"/><text style="dominant-baseline: middle; font-size: 10.2px;" transform="translate(5,101)" y="0" x="0" id="text-entity-accountprofiles-89674638-70b0-4d1d-8edc-7772cacd420b-attr-4-type" class="er entityLabel">AccountEcommerceExperience</text><rect height="22" width="132.353515625" y="90" x="151.72146606445312" class="er attributeBoxEven"/><text style="dominant-baseline: middle; font-size: 10.2px;" transform="translate(156.72146606445312,101)" y="0" x="0" id="text-entity-accountprofiles-89674638-70b0-4d1d-8edc-7772cacd420b-attr-4-name" class="er entityLabel">account_ecom_experience</text><rect height="22" width="22.68768310546875" y="90" x="284.0749816894531" class="er attributeBoxEven"/><text style="dominant-baseline: middle; font-size: 10.2px;" transform="translate(289.0749816894531,101)" y="0" x="0" id="text-entity-accountprofiles-89674638-70b0-4d1d-8edc-7772cacd420b-attr-4-key" class="er entityLabel"/><rect height="22" width="151.72146606445312" y="112" x="0" class="er attributeBoxOdd"/><text style="dominant-baseline: middle; font-size: 10.2px;" transform="translate(5,123)" y="0" x="0" id="text-entity-accountprofiles-89674638-70b0-4d1d-8edc-7772cacd420b-attr-5-type" class="er entityLabel">DateTime</text><rect height="22" width="132.353515625" y="112" x="151.72146606445312" class="er attributeBoxOdd"/><text style="dominant-baseline: middle; font-size: 10.2px;" transform="translate(156.72146606445312,123)" y="0" x="0" id="text-entity-accountprofiles-89674638-70b0-4d1d-8edc-7772cacd420b-attr-5-name" class="er entityLabel">created_at</text><rect height="22" width="22.68768310546875" y="112" x="284.0749816894531" class="er attributeBoxOdd"/><text style="dominant-baseline: middle; font-size: 10.2px;" transform="translate(289.0749816894531,123)" y="0" x="0" id="text-entity-accountprofiles-89674638-70b0-4d1d-8edc-7772cacd420b-attr-5-key" class="er entityLabel"/><rect height="22" width="151.72146606445312" y="134" x="0" class="er attributeBoxEven"/><text style="dominant-baseline: middle; font-size: 10.2px;" transform="translate(5,145)" y="0" x="0" id="text-entity-accountprofiles-89674638-70b0-4d1d-8edc-7772cacd420b-attr-6-type" class="er entityLabel">DateTime</text><rect height="22" width="132.353515625" y="134" x="151.72146606445312" class="er attributeBoxEven"/><text style="dominant-baseline: middle; font-size: 10.2px;" transform="translate(156.72146606445312,145)" y="0" x="0" id="text-entity-accountprofiles-89674638-70b0-4d1d-8edc-7772cacd420b-attr-6-name" class="er entityLabel">updated_at</text><rect height="22" width="22.68768310546875" y="134" x="284.0749816894531" class="er attributeBoxEven"/><text style="dominant-baseline: middle; font-size: 10.2px;" transform="translate(289.0749816894531,145)" y="0" x="0" id="text-entity-accountprofiles-89674638-70b0-4d1d-8edc-7772cacd420b-attr-6-key" class="er entityLabel"/></g><rect height="14" width="55.66796875" y="951" x="789.3983154296875" class="er relationshipLabelBox"/><text style="text-anchor: middle; dominant-baseline: middle; font-size: 12px;" y="958" x="817.2322998046875" id="rel1" class="er relationshipLabel">enum:role</text><rect height="14" width="42.740234375" y="564.5401000976562" x="713.7579345703125" class="er relationshipLabelBox"/><text style="text-anchor: middle; dominant-baseline: middle; font-size: 12px;" y="571.5401000976562" x="735.1280517578125" id="rel2" class="er relationshipLabel">account</text><rect height="13.999984741210938" width="107.177734375" y="248.72335052490234" x="389.3230895996094" class="er relationshipLabelBox"/><text style="text-anchor: middle; dominant-baseline: middle; font-size: 12px;" y="255.7233428955078" x="442.9119567871094" id="rel3" class="er relationshipLabel">enum:account_type</text><rect height="14" width="177.912109375" y="194.44338989257812" x="143.30514526367188" class="er relationshipLabelBox"/><text style="text-anchor: middle; dominant-baseline: middle; font-size: 12px;" y="201.44338989257812" x="232.26119995117188" id="rel4" class="er relationshipLabel">enum:account_ecom_experience</text><rect height="14" width="42.740234375" y="341.8364562988281" x="881.35693359375" class="er relationshipLabelBox"/><text style="text-anchor: middle; dominant-baseline: middle; font-size: 12px;" y="348.8364562988281" x="902.72705078125" id="rel5" class="er relationshipLabel">account</text><rect height="14" width="89.533203125" y="211.53472900390625" x="671.8814086914062" class="er relationshipLabelBox"/><text style="text-anchor: middle; dominant-baseline: middle; font-size: 12px;" y="218.53472900390625" x="716.6480102539062" id="rel6" class="er relationshipLabel">account_address</text></svg>